<svg width="24" height="24" viewBox="0 0 24 24" fill="none" xmlns="http://www.w3.org/2000/svg">
<mask id="mask0_237_482" style="mask-type:alpha" maskUnits="userSpaceOnUse" x="0" y="0" width="24" height="24">
<rect width="24" height="24" fill="#D9D9D9"/>
</mask>
<g mask="url(#mask0_237_482)">
<path d="M4.8502 24.5002C4.11686 24.5002 3.49186 24.2419 2.9752 23.7252C2.45853 23.2085 2.2002 22.5835 2.2002 21.8502V7.5502C2.2002 6.81686 2.45853 6.19186 2.9752 5.6752C3.49186 5.15853 4.11686 4.9002 4.8502 4.9002H14.2752L11.6252 7.5502H4.8502V21.8502H19.1502V15.0752L21.8002 12.4252V21.8502C21.8002 22.5835 21.5419 23.2085 21.0252 23.7252C20.5085 24.2419 19.8835 24.5002 19.1502 24.5002H4.8502ZM15.7502 6.2252L17.6502 8.1252L11.3252 14.4002V15.3752H12.2752L18.6002 9.0752L20.4502 10.9502L14.1752 17.2502C13.9252 17.5002 13.6375 17.6919 13.3122 17.8252C12.9875 17.9585 12.6502 18.0252 12.3002 18.0252H10.0002C9.63353 18.0252 9.32086 17.8959 9.0622 17.6372C8.8042 17.3792 8.6752 17.0669 8.6752 16.7002V14.4002C8.6752 14.0502 8.74186 13.7125 8.8752 13.3872C9.00853 13.0625 9.2002 12.7752 9.4502 12.5252L15.7502 6.2252ZM20.4502 10.9502L15.7502 6.2252L18.2252 3.7502C18.7585 3.21686 19.3919 2.9502 20.1252 2.9502C20.8585 2.9502 21.4835 3.21686 22.0002 3.7502L22.9502 4.7252C23.4669 5.25853 23.7252 5.88353 23.7252 6.6002C23.7252 7.31686 23.4669 7.93353 22.9502 8.4502L20.4502 10.9502Z" fill="#444DF2"/>
</g>
</svg>
