<svg fill="none" height="24" viewBox="0 0 23 24" width="23" xmlns="http://www.w3.org/2000/svg">
  <mask height="24" id="mask0_326_2137" maskUnits="userSpaceOnUse" style="mask-type:alpha" width="23" x="0" y="0">
    <rect fill="#D9D9D9" height="23" width="23" y="0.5"/>
  </mask>
  <g mask="url(#mask0_326_2137)">
    <path
      d="M6.94787 19.6668C6.64439 19.6668 6.39683 19.547 6.20516 19.3075C6.01349 19.0679 5.95759 18.8043 6.03745 18.5168L6.70828 15.8335H4.57599C4.25655 15.8335 4.00099 15.7099 3.80933 15.4626C3.61766 15.2147 3.56176 14.9391 3.64162 14.6356C3.68953 14.412 3.80134 14.2363 3.97703 14.1085C4.15273 13.9807 4.35238 13.9168 4.57599 13.9168H7.18745L8.14578 10.0835H5.53433C5.21488 10.0835 4.95933 9.95987 4.76766 9.71262C4.57599 9.46473 4.52009 9.18905 4.59995 8.88558C4.64787 8.66197 4.75967 8.48627 4.93537 8.3585C5.11106 8.23072 5.31071 8.16683 5.53433 8.16683H8.62495L9.41558 5.02829C9.46349 4.82065 9.56731 4.65294 9.72703 4.52516C9.88676 4.39738 10.0784 4.3335 10.302 4.3335C10.6055 4.3335 10.8531 4.45329 11.0447 4.69287C11.2364 4.93245 11.2923 5.196 11.2125 5.4835L10.5416 8.16683H14.375L15.1656 5.02829C15.2135 4.82065 15.3173 4.65294 15.477 4.52516C15.6368 4.39738 15.8284 4.3335 16.052 4.3335C16.3555 4.3335 16.6031 4.45329 16.7947 4.69287C16.9864 4.93245 17.0423 5.196 16.9625 5.4835L16.2916 8.16683H18.4239C18.7434 8.16683 18.9989 8.29045 19.1906 8.5377C19.3822 8.78559 19.4381 9.06127 19.3583 9.36475C19.3104 9.58836 19.1986 9.76405 19.0229 9.89183C18.8472 10.0196 18.6475 10.0835 18.4239 10.0835H15.8125L14.8541 13.9168H17.4656C17.785 13.9168 18.0406 14.0405 18.2322 14.2877C18.4239 14.5356 18.4798 14.8113 18.4 15.1147C18.352 15.3384 18.2402 15.5141 18.0645 15.6418C17.8888 15.7696 17.6892 15.8335 17.4656 15.8335H14.375L13.5843 18.972C13.5364 19.1797 13.4326 19.3474 13.2729 19.4752C13.1131 19.6029 12.9215 19.6668 12.6979 19.6668C12.3944 19.6668 12.1468 19.547 11.9552 19.3075C11.7635 19.0679 11.7076 18.8043 11.7875 18.5168L12.4583 15.8335H8.62495L7.83433 18.972C7.78641 19.1797 7.68259 19.3474 7.52287 19.4752C7.36314 19.6029 7.17148 19.6668 6.94787 19.6668ZM9.10412 13.9168H12.9375L13.8958 10.0835H10.0625L9.10412 13.9168Z"
      fill="#686868"/>
  </g>
</svg>
