<svg fill="none" height="20" viewBox="0 0 24 20" width="24" xmlns="http://www.w3.org/2000/svg">
	<path
		d="M19.3 11.7001C18.9333 11.7001 18.621 11.5708 18.363 11.3121C18.1043 11.0541 17.975 10.7418 17.975 10.3751V8.6501H16.25C15.8833 8.6501 15.5707 8.52077 15.312 8.2621C15.054 8.0041 14.925 7.69176 14.925 7.3251C14.925 6.95843 15.054 6.64576 15.312 6.3871C15.5707 6.1291 15.8833 6.0001 16.25 6.0001H17.975V4.2751C17.975 3.90843 18.1043 3.59576 18.363 3.3371C18.621 3.0791 18.9333 2.9501 19.3 2.9501C19.6667 2.9501 19.9793 3.0791 20.238 3.3371C20.496 3.59576 20.625 3.90843 20.625 4.2751V6.0001H22.35C22.7167 6.0001 23.0293 6.1291 23.288 6.3871C23.546 6.64576 23.675 6.95843 23.675 7.3251C23.675 7.69176 23.546 8.0041 23.288 8.2621C23.0293 8.52077 22.7167 8.6501 22.35 8.6501H20.625V10.3751C20.625 10.7418 20.496 11.0541 20.238 11.3121C19.9793 11.5708 19.6667 11.7001 19.3 11.7001ZM9.07501 9.2001C7.80835 9.2001 6.73335 8.75843 5.85001 7.8751C4.96668 6.99176 4.52501 5.91676 4.52501 4.6501C4.52501 3.38343 4.96668 2.30843 5.85001 1.4251C6.73335 0.541764 7.80835 0.100098 9.07501 0.100098C10.3417 0.100098 11.4167 0.541764 12.3 1.4251C13.1833 2.30843 13.625 3.38343 13.625 4.6501C13.625 5.91676 13.1833 6.99176 12.3 7.8751C11.4167 8.75843 10.3417 9.2001 9.07501 9.2001ZM1.62501 19.0251C1.25835 19.0251 0.950012 18.9001 0.700012 18.6501C0.450012 18.4001 0.325012 18.0918 0.325012 17.7251V15.4501C0.325012 14.7668 0.487346 14.1501 0.812012 13.6001C1.13735 13.0501 1.57501 12.6334 2.12501 12.3501C3.22501 11.7834 4.35835 11.3584 5.52501 11.0751C6.69168 10.7918 7.87501 10.6501 9.07501 10.6501C10.275 10.6501 11.4583 10.7918 12.625 11.0751C13.7917 11.3584 14.925 11.7834 16.025 12.3501C16.575 12.6334 17.0123 13.0501 17.337 13.6001C17.6623 14.1501 17.825 14.7668 17.825 15.4501V17.7251C17.825 18.0918 17.7 18.4001 17.45 18.6501C17.2 18.9001 16.8917 19.0251 16.525 19.0251H1.62501ZM2.97501 16.3751H15.175V15.4501C15.175 15.2668 15.146 15.1168 15.088 15.0001C15.0293 14.8834 14.95 14.8001 14.85 14.7501C13.9333 14.3001 12.9793 13.9461 11.988 13.6881C10.996 13.4294 10.025 13.3001 9.07501 13.3001C8.12501 13.3001 7.15401 13.4294 6.16201 13.6881C5.17068 13.9461 4.21668 14.3001 3.30001 14.7501C3.20001 14.8001 3.12068 14.8834 3.06201 15.0001C3.00401 15.1168 2.97501 15.2668 2.97501 15.4501V16.3751ZM9.07501 6.5501C9.60835 6.5501 10.0583 6.36676 10.425 6.0001C10.7917 5.63343 10.975 5.18343 10.975 4.6501C10.975 4.11676 10.7917 3.66676 10.425 3.3001C10.0583 2.93343 9.60835 2.7501 9.07501 2.7501C8.54168 2.7501 8.09168 2.93343 7.72501 3.3001C7.35835 3.66676 7.17501 4.11676 7.17501 4.6501C7.17501 5.18343 7.35835 5.63343 7.72501 6.0001C8.09168 6.36676 8.54168 6.5501 9.07501 6.5501Z"
		fill="#797EF3"/>
</svg>
