<svg fill="none" height="23" viewBox="0 0 23 23" width="23" xmlns="http://www.w3.org/2000/svg">
	<path
		d="M11.0002 22.7998C9.5002 22.7998 8.09586 22.5165 6.7872 21.9498C5.4792 21.3831 4.33786 20.6125 3.3632 19.6378C2.38786 18.6625 1.61686 17.5205 1.0502 16.2118C0.483529 14.9038 0.200195 13.4998 0.200195 11.9998C0.200195 10.4998 0.483529 9.09147 1.0502 7.7748C1.61686 6.45814 2.38786 5.31247 3.3632 4.3378C4.33786 3.36247 5.4792 2.59547 6.7872 2.0368C8.09586 1.4788 9.5002 1.1998 11.0002 1.1998C11.7669 1.1998 12.5129 1.2748 13.2382 1.4248C13.9629 1.5748 14.6502 1.79147 15.3002 2.0748C15.1169 2.35814 14.9669 2.65814 14.8502 2.9748C14.7335 3.29147 14.6752 3.63314 14.6752 3.9998C14.6752 4.13314 14.6835 4.26214 14.7002 4.3868C14.7169 4.51214 14.7419 4.64147 14.7752 4.7748C14.2085 4.4748 13.6085 4.24547 12.9752 4.0868C12.3419 3.9288 11.6835 3.8498 11.0002 3.8498C8.73353 3.8498 6.80853 4.64147 5.22519 6.2248C3.64186 7.80814 2.8502 9.73314 2.8502 11.9998C2.8502 14.2665 3.64186 16.1915 5.22519 17.7748C6.80853 19.3581 8.73353 20.1498 11.0002 20.1498C13.2669 20.1498 15.1919 19.3581 16.7752 17.7748C18.3585 16.1915 19.1502 14.2665 19.1502 11.9998C19.1502 11.4665 19.1002 10.9498 19.0002 10.4498C18.9002 9.9498 18.7585 9.46647 18.5752 8.9998C18.7919 9.0998 19.0212 9.17881 19.2632 9.2368C19.5045 9.29547 19.7502 9.3248 20.0002 9.3248C20.2502 9.3248 20.4919 9.2998 20.7252 9.2498C20.9585 9.1998 21.1835 9.1248 21.4002 9.0248C21.5335 9.50814 21.6335 9.9958 21.7002 10.4878C21.7669 10.9791 21.8002 11.4831 21.8002 11.9998C21.8002 13.4998 21.5209 14.9038 20.9622 16.2118C20.4042 17.5205 19.6379 18.6625 18.6632 19.6378C17.6879 20.6125 16.5419 21.3831 15.2252 21.9498C13.9085 22.5165 12.5002 22.7998 11.0002 22.7998ZM14.7002 11.1998C15.2002 11.1998 15.6169 11.0331 15.9502 10.6998C16.2835 10.3665 16.4502 9.9498 16.4502 9.4498C16.4502 8.9498 16.2835 8.53314 15.9502 8.1998C15.6169 7.86647 15.2002 7.6998 14.7002 7.6998C14.2002 7.6998 13.7835 7.86647 13.4502 8.1998C13.1169 8.53314 12.9502 8.9498 12.9502 9.4498C12.9502 9.9498 13.1169 10.3665 13.4502 10.6998C13.7835 11.0331 14.2002 11.1998 14.7002 11.1998ZM7.3002 11.1998C7.8002 11.1998 8.21686 11.0331 8.5502 10.6998C8.88353 10.3665 9.0502 9.9498 9.0502 9.4498C9.0502 8.9498 8.88353 8.53314 8.5502 8.1998C8.21686 7.86647 7.8002 7.6998 7.3002 7.6998C6.8002 7.6998 6.38353 7.86647 6.0502 8.1998C5.71686 8.53314 5.5502 8.9498 5.5502 9.4498C5.5502 9.9498 5.71686 10.3665 6.0502 10.6998C6.38353 11.0331 6.8002 11.1998 7.3002 11.1998ZM11.0002 17.9998C12.3835 17.9998 13.5669 17.6121 14.5502 16.8368C15.5335 16.0621 16.2169 15.1331 16.6002 14.0498H5.4002C5.78353 15.1331 6.46686 16.0621 7.4502 16.8368C8.43353 17.6121 9.61686 17.9998 11.0002 17.9998ZM18.6752 5.3248H18.0002C17.6335 5.3248 17.3209 5.19547 17.0622 4.9368C16.8042 4.6788 16.6752 4.36647 16.6752 3.9998C16.6752 3.63314 16.8042 3.32047 17.0622 3.0618C17.3209 2.8038 17.6335 2.6748 18.0002 2.6748H18.6752V1.9998C18.6752 1.63314 18.8042 1.32047 19.0622 1.0618C19.3209 0.803805 19.6335 0.674805 20.0002 0.674805C20.3669 0.674805 20.6795 0.803805 20.9382 1.0618C21.1962 1.32047 21.3252 1.63314 21.3252 1.9998V2.6748H22.0002C22.3669 2.6748 22.6795 2.8038 22.9382 3.0618C23.1962 3.32047 23.3252 3.63314 23.3252 3.9998C23.3252 4.36647 23.1962 4.6788 22.9382 4.9368C22.6795 5.19547 22.3669 5.3248 22.0002 5.3248H21.3252V5.9998C21.3252 6.36647 21.1962 6.67914 20.9382 6.9378C20.6795 7.1958 20.3669 7.3248 20.0002 7.3248C19.6335 7.3248 19.3209 7.1958 19.0622 6.9378C18.8042 6.67914 18.6752 6.36647 18.6752 5.9998V5.3248Z"
		fill="#535AF1"/>
</svg>
