<svg fill="none" height="19" viewBox="0 0 21 19" width="21" xmlns="http://www.w3.org/2000/svg">
    <path
        d="M5.93652 12H15.9365C16.2199 12 16.4572 11.904 16.6485 11.712C16.8405 11.5207 16.9365 11.2833 16.9365 11C16.9365 10.7167 16.8405 10.479 16.6485 10.287C16.4572 10.0957 16.2199 10 15.9365 10H5.93652C5.65319 10 5.41552 10.0957 5.22352 10.287C5.03219 10.479 4.93652 10.7167 4.93652 11C4.93652 11.2833 5.03219 11.5207 5.22352 11.712C5.41552 11.904 5.65319 12 5.93652 12ZM5.93652 9H15.9365C16.2199 9 16.4572 8.904 16.6485 8.712C16.8405 8.52067 16.9365 8.28333 16.9365 8C16.9365 7.71667 16.8405 7.479 16.6485 7.287C16.4572 7.09567 16.2199 7 15.9365 7H5.93652C5.65319 7 5.41552 7.09567 5.22352 7.287C5.03219 7.479 4.93652 7.71667 4.93652 8C4.93652 8.28333 5.03219 8.52067 5.22352 8.712C5.41552 8.904 5.65319 9 5.93652 9ZM5.93652 6H15.9365C16.2199 6 16.4572 5.90433 16.6485 5.713C16.8405 5.521 16.9365 5.28333 16.9365 5C16.9365 4.71667 16.8405 4.479 16.6485 4.287C16.4572 4.09567 16.2199 4 15.9365 4H5.93652C5.65319 4 5.41552 4.09567 5.22352 4.287C5.03219 4.479 4.93652 4.71667 4.93652 5C4.93652 5.28333 5.03219 5.521 5.22352 5.713C5.41552 5.90433 5.65319 6 5.93652 6ZM19.2365 18.3L16.9365 16H2.93652C2.38652 16 1.91586 15.8043 1.52452 15.413C1.13252 15.021 0.936523 14.55 0.936523 14V2C0.936523 1.45 1.13252 0.979 1.52452 0.587C1.91586 0.195667 2.38652 0 2.93652 0H18.9365C19.4865 0 19.9575 0.195667 20.3495 0.587C20.7409 0.979 20.9365 1.45 20.9365 2V17.575C20.9365 18.025 20.7325 18.3373 20.3245 18.512C19.9159 18.6873 19.5532 18.6167 19.2365 18.3ZM2.93652 2V14H17.7615L18.9365 15.175V2H2.93652Z"
        fill="black"/>
</svg>
