<svg fill="none" height="21" viewBox="0 0 23 21" width="23" xmlns="http://www.w3.org/2000/svg">
    <path
        d="M10.9365 21C9.55319 21 8.25319 20.7375 7.03652 20.2125C5.81986 19.6875 4.76152 18.975 3.86152 18.075C2.96152 17.175 2.24902 16.1167 1.72402 14.9C1.19902 13.6833 0.936523 12.3833 0.936523 11C0.936523 9.61667 1.19902 8.31667 1.72402 7.1C2.24902 5.88333 2.96152 4.825 3.86152 3.925C4.76152 3.025 5.81986 2.3125 7.03652 1.7875C8.25319 1.2625 9.55319 1 10.9365 1C11.6865 1 12.4157 1.07917 13.124 1.2375C13.8324 1.39583 14.5032 1.625 15.1365 1.925C15.0699 2.09167 15.0199 2.26667 14.9865 2.45C14.9532 2.63333 14.9365 2.81667 14.9365 3C14.9365 3.23333 14.9615 3.45417 15.0115 3.6625C15.0615 3.87083 15.1282 4.06667 15.2115 4.25C14.5949 3.86667 13.9282 3.5625 13.2115 3.3375C12.4949 3.1125 11.7365 3 10.9365 3C8.71986 3 6.83236 3.77917 5.27402 5.3375C3.71569 6.89583 2.93652 8.78333 2.93652 11C2.93652 13.2167 3.71569 15.1042 5.27402 16.6625C6.83236 18.2208 8.71986 19 10.9365 19C13.1532 19 15.0407 18.2208 16.599 16.6625C18.1574 15.1042 18.9365 13.2167 18.9365 11C18.9365 10.3333 18.8574 9.69167 18.699 9.075C18.5407 8.45833 18.3199 7.875 18.0365 7.325C18.3032 7.54167 18.5949 7.70833 18.9115 7.825C19.2282 7.94167 19.5699 8 19.9365 8C20.0199 8 20.1074 7.99583 20.199 7.9875C20.2907 7.97917 20.3782 7.96667 20.4615 7.95C20.6115 8.43333 20.7282 8.92917 20.8115 9.4375C20.8949 9.94583 20.9365 10.4667 20.9365 11C20.9365 12.3833 20.674 13.6833 20.149 14.9C19.624 16.1167 18.9115 17.175 18.0115 18.075C17.1115 18.975 16.0532 19.6875 14.8365 20.2125C13.6199 20.7375 12.3199 21 10.9365 21ZM14.4365 10C14.8699 10 15.2282 9.85833 15.5115 9.575C15.7949 9.29167 15.9365 8.93333 15.9365 8.5C15.9365 8.06667 15.7949 7.70833 15.5115 7.425C15.2282 7.14167 14.8699 7 14.4365 7C14.0032 7 13.6449 7.14167 13.3615 7.425C13.0782 7.70833 12.9365 8.06667 12.9365 8.5C12.9365 8.93333 13.0782 9.29167 13.3615 9.575C13.6449 9.85833 14.0032 10 14.4365 10ZM7.43652 10C7.86986 10 8.22819 9.85833 8.51152 9.575C8.79486 9.29167 8.93652 8.93333 8.93652 8.5C8.93652 8.06667 8.79486 7.70833 8.51152 7.425C8.22819 7.14167 7.86986 7 7.43652 7C7.00319 7 6.64486 7.14167 6.36152 7.425C6.07819 7.70833 5.93652 8.06667 5.93652 8.5C5.93652 8.93333 6.07819 9.29167 6.36152 9.575C6.64486 9.85833 7.00319 10 7.43652 10ZM10.9365 16.5C12.1199 16.5 13.1657 16.175 14.074 15.525C14.9824 14.875 15.6365 14.0333 16.0365 13H5.83652C6.23652 14.0333 6.89069 14.875 7.79902 15.525C8.70736 16.175 9.75319 16.5 10.9365 16.5ZM18.9365 4H17.9365C17.6532 4 17.4157 3.90417 17.224 3.7125C17.0324 3.52083 16.9365 3.28333 16.9365 3C16.9365 2.71667 17.0324 2.47917 17.224 2.2875C17.4157 2.09583 17.6532 2 17.9365 2H18.9365V1C18.9365 0.716667 19.0324 0.479167 19.224 0.2875C19.4157 0.0958333 19.6532 0 19.9365 0C20.2199 0 20.4574 0.0958333 20.649 0.2875C20.8407 0.479167 20.9365 0.716667 20.9365 1V2H21.9365C22.2199 2 22.4574 2.09583 22.649 2.2875C22.8407 2.47917 22.9365 2.71667 22.9365 3C22.9365 3.28333 22.8407 3.52083 22.649 3.7125C22.4574 3.90417 22.2199 4 21.9365 4H20.9365V5C20.9365 5.28333 20.8407 5.52083 20.649 5.7125C20.4574 5.90417 20.2199 6 19.9365 6C19.6532 6 19.4157 5.90417 19.224 5.7125C19.0324 5.52083 18.9365 5.28333 18.9365 5V4Z"
        fill="black"/>
</svg>
