<svg fill="none" height="20" viewBox="0 0 21 20" width="21" xmlns="http://www.w3.org/2000/svg">
	<g clip-path="url(#clip0_133926_18051)">
		<path d="M10.8549 8.3731C10.8549 8.3731 9.33359 8.65754 10.5833 6.16865C11.4888 4.35532 11.3983 2.25754 10.5833 1.15532C9.27925 -0.640233 6.70746 -0.0535667 6.97912 0.977544C7.88469 4.49754 5.83812 5.54643 4.76955 7.75088C3.68288 10.0087 3.80966 13.1909 4.29866 16.0353C4.60655 17.8131 5.40345 19.9998 8.30125 19.9998H12.3219L10.8549 8.3731Z"
		      fill="#FFDD67"/>
		<path d="M8.75416 19.502C5.85636 19.502 5.20435 17.3153 4.89646 15.5376C4.40746 12.6931 4.3169 10.4353 5.2768 8.12422C6.30914 5.63533 7.39581 5.56422 7.39581 0.622001C7.39581 0.373112 7.5407 0.213112 7.66748 0.106445C7.17848 0.266445 6.90681 0.533112 6.90681 0.942001C6.90681 4.63978 5.82013 5.54645 4.75157 7.76867C3.68301 10.0087 3.80979 13.1909 4.29879 16.0353C4.60668 17.8131 5.40358 19.9998 8.30138 19.9998H12.3221V19.502H8.73605H8.75416Z"
		      fill="#EBA352"/>
		<path d="M15.8356 11.271H10.855C9.11636 11.271 9.11636 8.35547 10.855 8.35547H15.8356C17.5743 8.35547 17.5743 11.271 15.8356 11.271Z"
		      fill="#FFDD67"/>
		<path d="M16.2161 10.7912H11.2355C10.0582 10.7912 9.67789 9.4756 10.0944 8.60449C9.17077 9.29783 9.40622 11.2712 10.837 11.2712H15.8176C16.3791 11.2712 16.7594 10.9689 16.9586 10.5423C16.7594 10.6845 16.5058 10.7912 16.2161 10.7912Z"
		      fill="#EBA352"/>
		<path d="M16.3608 14.1866H10.3841C8.30132 14.1866 8.30132 11.271 10.3841 11.271H16.3608C18.4436 11.271 18.4436 14.1866 16.3608 14.1866Z"
		      fill="#FFDD67"/>
		<path d="M16.8316 13.7067H10.8549C9.44223 13.7067 8.98945 12.3911 9.47845 11.52C8.35555 12.2134 8.66344 14.1867 10.384 14.1867H16.3607C17.0308 14.1867 17.4836 13.8845 17.7372 13.4578C17.5017 13.6 17.1938 13.7067 16.8316 13.7067Z"
		      fill="#EBA352"/>
		<path d="M15.7993 17.1021H10.7463C8.98951 17.1021 8.98951 14.1865 10.7463 14.1865H15.7993C17.5561 14.1865 17.5561 17.1021 15.7993 17.1021Z"
		      fill="#FFDD67"/>
		<path d="M16.1979 16.6222H11.1448C9.94949 16.6222 9.56915 15.3067 9.98571 14.4355C9.04392 15.1289 9.29748 17.1022 10.7464 17.1022H15.7994C16.379 17.1022 16.7593 16.8 16.9585 16.3733C16.7593 16.5155 16.5058 16.6222 16.1979 16.6222Z"
		      fill="#EBA352"/>
		<path d="M15.256 20H11.9959C10.1124 20 10.1124 17.0845 11.9959 17.0845H15.256C17.1395 17.0845 17.1395 20 15.256 20Z"
		      fill="#FFDD67"/>
		<path d="M15.6907 19.5202H12.4307C11.1629 19.5202 10.7463 18.2046 11.1991 17.3335C10.1849 18.0268 10.4565 20.0002 12.0141 20.0002H15.2741C15.8899 20.0002 16.2884 19.6979 16.5057 19.2713C16.2884 19.4135 16.0167 19.5202 15.6907 19.5202Z"
		      fill="#EBA352"/>
	</g>
	<defs>
		<clipPath id="clip0_133926_18051">
			<rect fill="white" height="20" transform="translate(0.936523)" width="20"/>
		</clipPath>
	</defs>
</svg>
