<svg width="28" height="29" viewBox="0 0 28 29" fill="none" xmlns="http://www.w3.org/2000/svg">
<path d="M24.5625 27.7239L16.651 19.8124C15.9219 20.3714 15.0289 20.8148 13.9721 21.1424C12.9143 21.471 11.8385 21.6353 10.7448 21.6353C7.85243 21.6353 5.40389 20.633 3.39917 18.6283C1.39347 16.6226 0.390625 14.1735 0.390625 11.2812C0.390625 8.38881 1.39347 5.93978 3.39917 3.93409C5.40389 1.92936 7.85243 0.927002 10.7448 0.927002C13.6372 0.927002 16.0862 1.92936 18.0919 3.93409C20.0966 5.93978 21.099 8.38881 21.099 11.2812C21.099 12.3749 20.9473 13.4201 20.644 14.4166C20.3397 15.4131 19.8958 16.3003 19.3125 17.078L27.2969 25.0624C27.6615 25.427 27.8438 25.8645 27.8438 26.3749C27.8438 26.8853 27.6493 27.335 27.2604 27.7239C26.8958 28.0885 26.4462 28.2708 25.9115 28.2708C25.3767 28.2708 24.9271 28.0885 24.5625 27.7239ZM10.7448 17.7708C12.5677 17.7708 14.1053 17.1446 15.3575 15.8924C16.6088 14.6412 17.2344 13.1041 17.2344 11.2812C17.2344 9.45825 16.6088 7.92068 15.3575 6.66846C14.1053 5.41721 12.5677 4.79159 10.7448 4.79159C8.92188 4.79159 7.38479 5.41721 6.13354 6.66846C4.88132 7.92068 4.25521 9.45825 4.25521 11.2812C4.25521 13.1041 4.88132 14.6412 6.13354 15.8924C7.38479 17.1446 8.92188 17.7708 10.7448 17.7708Z" fill="black"/>
</svg>
