<svg width="26" height="20" viewBox="0 0 26 20" fill="none" xmlns="http://www.w3.org/2000/svg">
<path d="M3 20C2.3125 20 1.72417 19.7554 1.235 19.2663C0.745 18.7763 0.5 18.1875 0.5 17.5V2.5C0.5 1.8125 0.745 1.22417 1.235 0.735C1.72417 0.245 2.3125 0 3 0H23C23.6875 0 24.2763 0.245 24.7663 0.735C25.2554 1.22417 25.5 1.8125 25.5 2.5V17.5C25.5 18.1875 25.2554 18.7763 24.7663 19.2663C24.2763 19.7554 23.6875 20 23 20H3ZM23 5L13.6562 10.8438C13.5521 10.9062 13.4425 10.9529 13.3275 10.9837C13.2133 11.0154 13.1042 11.0312 13 11.0312C12.8958 11.0312 12.7867 11.0154 12.6725 10.9837C12.5575 10.9529 12.4479 10.9062 12.3438 10.8438L3 5V17.5H23V5ZM13 8.75L23 2.5H3L13 8.75ZM3 5.3125V3.46875V3.5V3.48375V5.3125Z" fill="black"/>
</svg>
